<svg xmlns="http://www.w3.org/2000/svg" width="32" height="32" id="man"><path fill="#2b4255" fill-rule="evenodd" style="line-height:normal;text-indent:0;text-align:start;text-decoration-line:none;text-decoration-style:solid;text-decoration-color:#000;text-transform:none;block-progression:tb;isolation:auto;mix-blend-mode:normal" d="M-995.072 53.357v1H-991v-1h-4.072zm-.928-3.002v1h5v-1h-5zm10 18v1h4.031v-1H-986zm-8.598-11.998v1h12.63v-1h-12.63zm0 3v1h12.63v-1h-12.63zm-.662 3v1h13.291v-1h-13.29zm-.265 3v1h13.556v-1h-13.556z" color="#000" font-family="sans-serif" font-weight="400" overflow="visible" transform="translate(1010 -46.357)"></path><path fill="#2b4255" style="line-height:normal;text-indent:0;text-align:start;text-decoration-line:none;text-decoration-style:solid;text-decoration-color:#000;text-transform:none;block-progression:tb;isolation:auto;mix-blend-mode:normal" d="M-998.5 47.357a.5.5 0 0 0-.5.5v5.807a.5.5 0 1 0 1 0v-5.307h12.5a.5.5 0 1 0 0-1h-13zm18.992 6.024a.5.5 0 0 0-.492.508V74.35H-988.438a.5.5 0 1 0 0 1H-979.5a.5.5 0 0 0 .5-.5V53.888a.5.5 0 0 0-.508-.507z" color="#000" font-family="sans-serif" font-weight="400" overflow="visible" transform="translate(1010 -46.357)"></path><path fill="#2b4255" fill-rule="evenodd" style="line-height:normal;text-indent:0;text-align:start;text-decoration-line:none;text-decoration-style:solid;text-decoration-color:#000;text-transform:none;block-progression:tb;isolation:auto;mix-blend-mode:normal" d="M-983.508 47.357a.5.5 0 0 0-.492.498v4.002a.5.5 0 0 0 .5.5h4a.5.5 0 0 0 .354-.853l-4-4.002a.5.5 0 0 0-.362-.145zm.508 1.707 2.293 2.293H-983v-2.293z" color="#000" font-family="sans-serif" font-weight="400" overflow="visible" transform="translate(1010 -46.357)"></path><path fill="#f05542" fill-rule="evenodd" style="line-height:normal;text-indent:0;text-align:start;text-decoration-line:none;text-decoration-style:solid;text-decoration-color:#000;text-transform:none;block-progression:tb;isolation:auto;mix-blend-mode:normal" d="M-1002 63.553v2.521l-4.928 2.817a4.114 4.114 0 0 0-2.072 3.57v4.896h21v-4.992a3.95 3.95 0 0 0-1.988-3.427L-995 66.073v-2.521h-1v3.101l5.516 3.153A2.945 2.945 0 0 1-989 72.365v3.992h-19v-3.896c0-1.118.598-2.148 1.568-2.703l5.432-3.104v-3.101h-1z" color="#000" font-family="sans-serif" font-weight="400" overflow="visible" transform="translate(1010 -46.357)"></path><path fill="#f05542" style="line-height:normal;text-indent:0;text-align:start;text-decoration-line:none;text-decoration-style:solid;text-decoration-color:#000;text-transform:none;block-progression:tb;isolation:auto;mix-blend-mode:normal" d="m-996.729 52.303-.464.002-.032.465c-.01.158-.084.27-.246.384a1.31 1.31 0 0 1-.619.21h-2.19c-1.502 0-2.722 1.238-2.722 2.75v4.75c0 2.509 2.014 4.552 4.502 4.552s4.502-2.043 4.502-4.553v-2.699c0-.059-.001-.044-.002-.02v-.005c0 .025.002.046.002-.024v-2.963l-.004-.033c-.099-.76-.332-1.451-.783-1.976-.451-.526-1.135-.844-1.944-.84zm.184 1.074c.426.043.768.147 1 .418.272.316.464.816.547 1.443v2.877c0-.07-.001-.051-.002.02v.004c0 .091.002.082.002.025v2.7c0 1.979-1.557 3.552-3.502 3.552-1.944 0-3.502-1.573-3.502-3.553v-4.75c0-.981.763-1.75 1.723-1.75h2.25c.392-.026.793-.15 1.136-.392.18-.127.227-.39.348-.594z" color="#000" font-family="sans-serif" font-weight="400" overflow="visible" transform="translate(1010 -46.357)"></path><path fill="#f05542" fill-rule="evenodd" style="line-height:normal;text-indent:0;text-align:start;text-decoration-line:none;text-decoration-style:solid;text-decoration-color:#000;text-transform:none;block-progression:tb;isolation:auto;mix-blend-mode:normal" d="M-1000.512 56.83a.5.5 0 0 0-.455.37c.018-.069-.058.104-.193.265-.136.16-.324.351-.522.527-.197.176-.406.34-.576.447-.17.108-.334.133-.24.133a.5.5 0 1 0 0 1c.342 0 .542-.139.777-.289.236-.15.476-.34.705-.545.23-.204.444-.42.62-.627.023-.027.029-.06.05-.086.35.337.678.737 1.094.852.634.175 1.279.156 1.873.13.595-.024 1.144-.054 1.557.022.413.076.667.205.88.575a.5.5 0 1 0 .866-.5c-.364-.63-.97-.95-1.564-1.06-.596-.109-1.203-.06-1.782-.036-.578.024-1.123.025-1.562-.096-.439-.121-.776-.328-1.067-.832a.5.5 0 0 0-.46-.25zm-1.092 7.705-1.394 5.166v.037c-.094.778.739 1.427 1.457 1.086l1.86-.924.69.674V77.3h1v-7.147l-1.33-1.295c-.75-.814-1.48-1.792-1.767-2.697l-.515-1.625zm.235 2.967c.317.564.622 1.119 1.039 1.603l-1.645.817c-.034.016-.037.003-.03-.059l.636-2.361z" color="#000" font-family="sans-serif" font-weight="400" overflow="visible" transform="translate(1010 -46.357)"></path><path fill="#f05542" fill-rule="evenodd" style="line-height:normal;text-indent:0;text-align:start;text-decoration-line:none;text-decoration-style:solid;text-decoration-color:#000;text-transform:none;block-progression:tb;isolation:auto;mix-blend-mode:normal" d="M-995.709 66.053c-.01.017-.019.036-.03.052-.545.88-.834 1.864-1.917 2.788l.002.002-1.346 1.252v7.14h1v-6.705l.738-.687 1.97.933.003.002c.728.33 1.583-.299 1.483-1.092l-.006-.047-.014-.042s-.266-.826-.52-1.67c-.127-.422-.252-.85-.338-1.174a7.374 7.374 0 0 1-.093-.387 1.01 1.01 0 0 1-.014-.084c0-.006.068-.035-.045.201l-.873-.482zm.242 1.644c.056.195.103.367.164.569.245.812.474 1.527.498 1.603.003.054-.013.077-.07.05l-1.691-.8c.457-.501.855-.969 1.1-1.422zm-9.531 5.668v3.264h1v-3.264h-1zm12.018 0v3.264h1v-3.264h-1z" color="#000" font-family="sans-serif" font-weight="400" overflow="visible" transform="translate(1010 -46.357)"></path><path fill="#f05542" d="M14 26.508a.5.5 0 0 1-.5.5.5.5 0 0 1-.5-.5.5.5 0 0 1 .5-.5.5.5 0 0 1 .5.5zm0 2a.5.5 0 0 1-.5.5.5.5 0 0 1-.5-.5.5.5 0 0 1 .5-.5.5.5 0 0 1 .5.5z"></path><path fill="#f05542" fill-rule="evenodd" style="line-height:normal;text-indent:0;text-align:start;text-decoration-line:none;text-decoration-style:solid;text-decoration-color:#000;text-transform:none;block-progression:tb;isolation:auto;mix-blend-mode:normal" d="M-1000.512 56.83a.5.5 0 0 0-.455.37c.018-.069-.058.104-.193.265-.136.16-.324.351-.522.527-.197.176-.406.34-.576.447-.17.108-.334.133-.24.133a.5.5 0 1 0 0 1c.342 0 .542-.139.777-.289.236-.15.476-.34.705-.545.23-.204.444-.42.62-.627.023-.027.029-.06.05-.086.35.337.678.737 1.094.852.634.175 1.279.156 1.873.13.595-.024 1.144-.054 1.557.022.413.076.667.205.88.575a.5.5 0 1 0 .866-.5c-.364-.63-.97-.95-1.564-1.06-.596-.109-1.203-.06-1.782-.036-.578.024-1.123.025-1.562-.096-.439-.121-.776-.328-1.067-.832a.5.5 0 0 0-.46-.25zM-990 50.357v5h5v-5h-5zm1 1h3v3h-3v-3z" color="#000" font-family="sans-serif" font-weight="400" overflow="visible" transform="translate(1010 -46.357)"></path></svg>